<svg width="19" height="20" viewBox="0 0 19 20" fill="none" xmlns="http://www.w3.org/2000/svg">
<path d="M17.2813 0.952393H1.7187C0.7695 0.952393 0 1.72211 0 2.67159V18.2386C0 19.1881 0.7695 19.9578 1.7187 19.9578H17.2812C18.2305 19.9578 19 19.1881 19 18.2386V2.67159C19 1.72211 18.2305 0.952393 17.2813 0.952393ZM5.87941 17.3629C5.87941 17.6392 5.65548 17.8632 5.37924 17.8632H3.25014C2.9739 17.8632 2.74998 17.6392 2.74998 17.3629V8.4353C2.74998 8.15898 2.9739 7.93499 3.25014 7.93499H5.37924C5.65548 7.93499 5.87941 8.15898 5.87941 8.4353V17.3629ZM4.31469 7.09343C3.19762 7.09343 2.29204 6.18759 2.29204 5.0702C2.29204 3.95281 3.19762 3.04697 4.31469 3.04697C5.43176 3.04697 6.33735 3.95281 6.33735 5.0702C6.33735 6.18759 5.43181 7.09343 4.31469 7.09343ZM17.006 17.4032C17.006 17.6573 16.8001 17.8632 16.5461 17.8632H14.2614C14.0075 17.8632 13.8016 17.6573 13.8016 17.4032V13.2157C13.8016 12.591 13.9847 10.4782 12.1695 10.4782C10.7615 10.4782 10.4759 11.9243 10.4185 12.5733V17.4032C10.4185 17.6573 10.2126 17.8632 9.95864 17.8632H7.74897C7.495 17.8632 7.28909 17.6573 7.28909 17.4032V8.395C7.28909 8.14097 7.495 7.93499 7.74897 7.93499H9.95864C10.2126 7.93499 10.4185 8.14097 10.4185 8.395V9.17388C10.9406 8.39013 11.7165 7.78519 13.3686 7.78519C17.0269 7.78519 17.006 11.204 17.006 13.0824V17.4032Z" fill="#1D6FF3"/>
</svg>
