<svg width="19" height="17" viewBox="0 0 19 17" fill="none" xmlns="http://www.w3.org/2000/svg">
<path d="M5.97535 16.3995C13.1456 16.3995 17.0666 10.4575 17.0666 5.30507C17.0666 5.13629 17.0631 4.96823 17.0556 4.80105C17.8166 4.25063 18.4782 3.56376 19 2.78192C18.3016 3.09251 17.5499 3.30146 16.7614 3.39585C17.5663 2.913 18.1842 2.14943 18.4756 1.23912C17.7224 1.68572 16.8883 2.01023 16.0003 2.18553C15.2889 1.42762 14.2761 0.953613 13.1547 0.953613C11.0021 0.953613 9.25634 2.69985 9.25634 4.85238C9.25634 5.15847 9.29055 5.45601 9.35738 5.74152C6.11755 5.57839 3.24461 4.02689 1.32217 1.66745C0.987459 2.24368 0.794374 2.91315 0.794374 3.62742C0.794374 4.98012 1.48264 6.17449 2.5291 6.8731C1.88954 6.85338 1.28883 6.67778 0.763643 6.38546C0.763063 6.40185 0.763063 6.4178 0.763063 6.4352C0.763063 8.32368 2.10669 9.90041 3.89055 10.2577C3.56294 10.3469 3.21823 10.3949 2.86265 10.3949C2.61187 10.3949 2.36747 10.3702 2.12988 10.3245C2.62622 11.8739 4.06537 13.0012 5.77153 13.0328C4.43733 14.0789 2.75654 14.7019 0.929911 14.7019C0.61564 14.7019 0.305138 14.684 0 14.648C1.72515 15.7541 3.77371 16.3995 5.97535 16.3995Z" fill="#1D6FF3"/>
</svg>
